<svg xmlns="http://www.w3.org/2000/svg" viewBox="0 0 100 100" width="50px" height="50px"><path fill="#4e6e91" d="M69,82H31c-7.18,0-13-5.82-13-13V31c0-7.18,5.82-13,13-13h38c7.18,0,13,5.82,13,13v38	C82,76.18,76.18,82,69,82z"/><path fill="#78ccd3" d="M31.5,59.5c0-7.039,5.227-12.865,12-13.84v-2.122c-0.33-0.025-0.663-0.038-1-0.038	c-7.72,0-14,6.28-14,14c0,5.498,3.194,10.252,7.816,12.541C33.372,67.473,31.5,63.705,31.5,59.5z"/><path fill="#78ccd3" d="M45.5,66.5c3.86,0,7-3.141,7-7V47.394V42.5v-14h4.405c-0.159-0.623-0.288-1.287-0.376-2H49.5v14	v4.894V57.5c0,3.859-3.14,7-7,7c-0.784,0-1.535-0.135-2.239-0.374C41.544,65.578,43.414,66.5,45.5,66.5z"/><path fill="#78ccd3" d="M68.5,37.5c-0.21,0-2.659-0.034-5.3-1.262c1.711,1.59,3.696,2.406,5.3,2.823V37.5z"/><path fill="#78ccd3" d="M63.2,36.238c-1.753-1.63-3.216-4.071-3.671-7.738h-2.624C58.01,32.826,60.691,35.072,63.2,36.238z"/><path fill="#f05b6c" d="M68.5,39.061V44.5c-3.183,0-7.998-1.062-12-4.198V57.5c0,7.72-6.28,14-14,14	c-2.222,0-4.316-0.534-6.184-1.459c2.461,2.147,5.669,3.459,9.184,3.459c7.72,0,14-6.28,14-14V42.302	c4.002,3.137,8.817,4.198,12,4.198v-7C71.354,39.5,70.123,39.483,68.5,39.061z"/><path fill="#f05b6c" d="M42.5,50.5c-3.86,0-7,3.141-7,7c0,3.076,1.997,5.689,4.761,6.626	C39.169,62.891,38.5,61.274,38.5,59.5c0-3.859,3.14-7,7-7c0.34,0,0.673,0.027,1,0.075v-7.037c-0.33-0.025-0.663-0.038-1-0.038	c-0.681,0-1.345,0.065-2,0.16v4.915C43.173,50.527,42.84,50.5,42.5,50.5z"/><path fill="#fff" d="M56.5,57.5V40.302c4.002,3.137,8.817,4.198,12,4.198v-5.439c-1.604-0.417-3.589-1.232-5.3-2.823	c-2.509-1.166-5.19-3.412-6.295-7.738H52.5v14v4.894V59.5c0,3.859-3.14,7-7,7c-2.086,0-3.956-0.922-5.239-2.374	c-2.764-0.937-4.761-3.55-4.761-6.626c0-3.859,3.14-7,7-7c0.34,0,0.673,0.027,1,0.075V45.66c-6.773,0.976-12,6.801-12,13.84	c0,4.205,1.872,7.973,4.816,10.541c1.868,0.925,3.962,1.459,6.184,1.459C50.22,71.5,56.5,65.22,56.5,57.5z"/><path fill="#1f212b" d="M36.316,70.541c-0.075,0-0.15-0.017-0.222-0.052C31.102,68.018,28,63.041,28,57.5	C28,49.505,34.505,43,42.5,43c0.35,0,0.695,0.014,1.038,0.04C43.799,43.059,44,43.276,44,43.538v2.122	c0,0.249-0.183,0.459-0.429,0.495C36.975,47.104,32,52.842,32,59.5c0,3.884,1.693,7.589,4.646,10.164	c0.188,0.166,0.227,0.445,0.087,0.654C36.637,70.462,36.479,70.541,36.316,70.541z M42.5,44C35.056,44,29,50.056,29,57.5	c0,3.867,1.623,7.439,4.396,9.955C31.848,65.11,31,62.351,31,59.5c0-7.007,5.129-13.064,12-14.267V44.01	C42.834,44.003,42.668,44,42.5,44z"/><path fill="#1f212b" d="M45.5,67c-2.14,0-4.186-0.927-5.614-2.543c-0.149-0.17-0.167-0.419-0.041-0.608	s0.363-0.267,0.576-0.197C41.102,63.883,41.801,64,42.5,64c3.584,0,6.5-2.916,6.5-6.5v-31c0-0.276,0.224-0.5,0.5-0.5h7.029	c0.253,0,0.466,0.188,0.496,0.439c0.081,0.655,0.203,1.307,0.364,1.938c0.038,0.149,0.005,0.308-0.09,0.43S57.06,29,56.905,29H53	v30.5C53,63.636,49.636,67,45.5,67z M42.027,64.985C43.059,65.641,44.262,66,45.5,66c3.584,0,6.5-2.916,6.5-6.5v-31	c0-0.276,0.224-0.5,0.5-0.5h3.774c-0.07-0.33-0.131-0.664-0.182-1H50v30.5c0,4.136-3.364,7.5-7.5,7.5	C42.343,65,42.185,64.995,42.027,64.985z"/><path fill="#1f212b" d="M68.5,39.561c-0.042,0-0.084-0.005-0.126-0.016c-2.165-0.563-4.021-1.552-5.515-2.94	c-0.18-0.167-0.211-0.441-0.074-0.645c0.138-0.205,0.402-0.277,0.626-0.175C65.996,36.986,68.399,37,68.5,37	c0.276,0,0.5,0.224,0.5,0.5v1.561c0,0.155-0.071,0.301-0.194,0.396C68.718,39.524,68.609,39.561,68.5,39.561z M66.372,37.77	c0.516,0.242,1.06,0.452,1.628,0.628v-0.417C67.62,37.956,67.056,37.899,66.372,37.77z"/><path fill="#1f212b" d="M63.2,36.738c-0.071,0-0.143-0.015-0.211-0.046c-3.346-1.556-5.617-4.346-6.568-8.068	c-0.038-0.15-0.005-0.309,0.09-0.431S56.751,28,56.905,28h2.624c0.252,0,0.465,0.188,0.496,0.438	c0.388,3.125,1.57,5.626,3.516,7.434c0.18,0.167,0.211,0.441,0.074,0.645C63.52,36.659,63.362,36.738,63.2,36.738z M57.564,29	c0.653,2.135,1.768,3.872,3.329,5.192c-0.903-1.485-1.506-3.221-1.801-5.192H57.564z"/><path fill="#1f212b" d="M45.5,74c-3.487,0-6.865-1.272-9.513-3.582c-0.189-0.166-0.227-0.446-0.087-0.655	c0.14-0.209,0.415-0.282,0.638-0.17C38.423,70.527,40.428,71,42.5,71C49.944,71,56,64.944,56,57.5V40.302	c0-0.191,0.109-0.366,0.281-0.45c0.171-0.084,0.377-0.062,0.527,0.056c3.649,2.86,8.075,3.975,11.191,4.083v-4.931	c0-0.155,0.071-0.301,0.194-0.396c0.121-0.095,0.279-0.127,0.432-0.088C70.234,38.995,71.449,39,71.5,39c0.276,0,0.5,0.224,0.5,0.5	v7c0,0.276-0.224,0.5-0.5,0.5c-3.079,0-7.614-0.987-11.5-3.706V59.5C60,67.495,53.495,74,45.5,74z M39.871,71.758	C41.627,72.57,43.545,73,45.5,73C52.944,73,59,66.944,59,59.5V42.52c-0.679-0.362-1.349-0.77-2-1.226V57.5	C57,65.495,50.495,72,42.5,72C41.611,72,40.733,71.919,39.871,71.758z M64.266,44.484c2.417,0.995,4.822,1.44,6.734,1.507V39.98	c-0.444-0.03-1.148-0.104-2-0.287V44.5c0,0.276-0.224,0.5-0.5,0.5C67.275,45,65.819,44.844,64.266,44.484z"/><path fill="#1f212b" d="M40.261,64.626c-0.054,0-0.107-0.009-0.16-0.026C37.05,63.565,35,60.712,35,57.5	c0-4.136,3.364-7.5,7.5-7.5c0.164,0,0.331,0.006,0.5,0.018V45.66c0-0.249,0.183-0.459,0.429-0.495	c1.213-0.175,2.146-0.198,3.109-0.125C46.799,45.059,47,45.276,47,45.538v7.037c0,0.145-0.063,0.283-0.173,0.378	c-0.11,0.096-0.257,0.138-0.399,0.116C46.112,53.023,45.801,53,45.5,53c-3.584,0-6.5,2.916-6.5,6.5c0,1.577,0.581,3.102,1.636,4.295	c0.149,0.169,0.167,0.419,0.041,0.608C40.582,64.545,40.425,64.626,40.261,64.626z M42.5,51c-3.584,0-6.5,2.916-6.5,6.5	c0,2.16,1.07,4.133,2.786,5.328C38.272,61.799,38,60.662,38,59.5c0-4.136,3.364-7.5,7.5-7.5c0.164,0,0.331,0.006,0.5,0.018V46.01	c-0.626-0.023-1.252-0.003-2,0.088v4.477c0,0.145-0.063,0.283-0.173,0.378c-0.11,0.096-0.254,0.136-0.399,0.116	C43.112,51.023,42.801,51,42.5,51z"/><path fill="#1f212b" d="M42.5,72c-2.228,0-4.383-0.508-6.405-1.511c-0.039-0.02-0.074-0.043-0.107-0.071	C32.818,67.653,31,63.673,31,59.5c0-7.152,5.343-13.314,12.429-14.335c0.144-0.021,0.29,0.023,0.398,0.117	C43.937,45.377,44,45.515,44,45.66v4.915c0,0.145-0.063,0.283-0.173,0.378c-0.11,0.096-0.254,0.136-0.399,0.116	C43.112,51.023,42.801,51,42.5,51c-3.584,0-6.5,2.916-6.5,6.5c0,2.783,1.776,5.256,4.421,6.152c0.083,0.028,0.157,0.077,0.215,0.143	C41.874,65.196,43.646,66,45.5,66c3.584,0,6.5-2.916,6.5-6.5v-31c0-0.276,0.224-0.5,0.5-0.5h4.405c0.229,0,0.428,0.155,0.484,0.376	c0.887,3.471,2.913,5.963,6.021,7.409c0.048,0.022,0.091,0.052,0.13,0.087c1.37,1.274,3.081,2.184,5.085,2.705	C68.846,38.634,69,38.833,69,39.061V44.5c0,0.276-0.224,0.5-0.5,0.5c-3.079,0-7.614-0.987-11.5-3.706V57.5	C57,65.495,50.495,72,42.5,72z M36.597,69.622C38.464,70.536,40.449,71,42.5,71C49.944,71,56,64.944,56,57.5V40.302	c0-0.191,0.109-0.366,0.281-0.45c0.171-0.084,0.377-0.062,0.527,0.056c3.649,2.86,8.075,3.975,11.191,4.083v-4.549	c-1.979-0.568-3.686-1.503-5.082-2.784c-3.193-1.509-5.397-4.15-6.396-7.658H53v30.5c0,4.136-3.364,7.5-7.5,7.5	c-2.096,0-4.102-0.889-5.525-2.444C36.993,63.487,35,60.668,35,57.5c0-4.136,3.364-7.5,7.5-7.5c0.164,0,0.331,0.006,0.5,0.018V46.25	c-6.311,1.189-11,6.786-11,13.25C32,63.363,33.675,67.048,36.597,69.622z"/><path fill="#1f212b" d="M22.5,34c-0.276,0-0.5-0.224-0.5-0.5C22,27.159,27.159,22,33.5,22h3c0.276,0,0.5,0.224,0.5,0.5	S36.776,23,36.5,23h-3C27.71,23,23,27.71,23,33.5C23,33.776,22.776,34,22.5,34z"/><path fill="#1f212b" d="M77.45,68c-0.016,0-0.031,0-0.047-0.002c-0.274-0.025-0.478-0.269-0.452-0.544	C76.98,67.139,77,66.822,77,66.5c0-0.276,0.224-0.5,0.5-0.5s0.5,0.224,0.5,0.5c0,0.353-0.021,0.701-0.053,1.046	C77.923,67.805,77.705,68,77.45,68z"/><path fill="#1f212b" d="M66.5,78c-0.276,0-0.5-0.224-0.5-0.5s0.224-0.5,0.5-0.5c2.677,0,5.23-1.017,7.191-2.864	c0.201-0.19,0.517-0.181,0.707,0.021c0.189,0.201,0.18,0.518-0.021,0.707C72.229,76.886,69.433,78,66.5,78z"/><path fill="#1f212b" d="M75.713,73c-0.094,0-0.188-0.026-0.273-0.081c-0.231-0.151-0.296-0.461-0.146-0.692	c0.574-0.879,1.012-1.842,1.3-2.863c0.075-0.266,0.354-0.422,0.617-0.345c0.267,0.075,0.421,0.352,0.346,0.617	c-0.316,1.118-0.796,2.173-1.425,3.137C76.036,72.92,75.876,73,75.713,73z"/><path fill="#1f212b" d="M69,83H31c-7.72,0-14-6.28-14-14V31c0-7.72,6.28-14,14-14h38c7.72,0,14,6.28,14,14v38	C83,76.72,76.72,83,69,83z M31,19c-6.617,0-12,5.383-12,12v38c0,6.617,5.383,12,12,12h38c6.617,0,12-5.383,12-12V31	c0-6.617-5.383-12-12-12H31z"/></svg>